<?xml version="1.0" standalone="no"?>
<!DOCTYPE svg PUBLIC "-//W3C//DTD SVG 20010904//EN"
 "http://www.w3.org/TR/2001/REC-SVG-20010904/DTD/svg10.dtd">
<svg version="1.0" xmlns="http://www.w3.org/2000/svg"
 width="400.000000pt" height="400.000000pt" viewBox="0 0 400.000000 400.000000"
 preserveAspectRatio="xMidYMid meet">
<metadata>
Created by potrace 1.11, written by Peter Selinger 2001-2013
</metadata>
<g transform="translate(0.000000,400.000000) scale(0.100000,-0.100000)"
fill="#000000" stroke="none">
<path d="M2081 3698 c-25 -4 -73 -10 -108 -13 -35 -3 -78 -7 -96 -10 -18 -2
-54 -7 -82 -10 -79 -10 -95 -16 -101 -40 -5 -19 6 -142 21 -245 2 -14 7 -56
11 -95 3 -38 8 -79 10 -90 2 -11 7 -54 10 -95 3 -41 11 -86 18 -100 11 -23 17
-25 76 -24 36 1 92 4 125 9 33 4 74 9 90 10 46 4 157 16 188 20 39 5 56 31 51
80 -5 60 -15 136 -20 170 -3 16 -7 54 -9 85 -3 30 -7 73 -10 95 -7 49 -22 183
-24 215 -3 43 -52 56 -150 38z"/>
<path d="M1238 3605 c-2 -3 -26 -7 -52 -9 -27 -3 -65 -7 -85 -10 -20 -3 -58
-7 -86 -11 -27 -3 -70 -8 -95 -11 -25 -3 -67 -7 -94 -9 -73 -7 -78 -21 -62
-155 7 -53 16 -129 21 -185 3 -22 7 -60 10 -85 3 -25 8 -70 11 -101 3 -31 7
-65 9 -75 2 -11 4 -29 4 -41 2 -43 27 -55 100 -48 92 10 109 12 171 19 53 7
80 10 183 21 85 9 90 16 83 98 -3 40 -8 81 -10 92 -4 20 -13 101 -21 184 -3
24 -7 60 -9 80 -3 20 -8 63 -11 96 -3 33 -8 69 -10 80 -2 11 -4 25 -4 31 -1
13 -46 46 -53 39z"/>
<path d="M2580 2887 c-3 -3 -39 -8 -80 -12 -41 -4 -86 -8 -100 -10 -75 -8
-158 -17 -180 -20 -14 -2 -50 -6 -80 -10 -30 -3 -71 -8 -90 -10 -19 -3 -57 -7
-85 -10 -27 -3 -69 -8 -92 -10 -24 -3 -62 -7 -85 -10 -24 -2 -81 -9 -128 -14
-47 -6 -107 -13 -135 -16 -47 -4 -104 -10 -185 -20 -19 -2 -60 -7 -90 -10 -30
-3 -71 -8 -90 -10 -19 -3 -57 -7 -85 -10 -27 -3 -66 -7 -85 -10 -99 -12 -147
-18 -170 -20 -14 -1 -47 -5 -75 -9 -27 -3 -72 -8 -100 -11 -27 -3 -64 -7 -80
-9 -110 -14 -185 -62 -227 -145 -26 -50 -27 -61 -23 -145 2 -50 7 -109 10
-131 2 -22 7 -65 11 -95 15 -139 23 -204 29 -245 3 -16 7 -57 10 -90 6 -68 15
-155 20 -200 2 -16 8 -50 14 -75 5 -25 12 -56 15 -70 16 -83 138 -360 158
-360 4 0 8 -5 8 -11 0 -20 126 -173 202 -244 88 -83 193 -157 303 -213 71 -36
182 -83 210 -88 6 -1 38 -9 73 -18 58 -15 94 -21 177 -31 42 -6 245 -6 275 -1
14 2 47 7 73 11 53 7 71 11 152 30 17 4 35 10 40 14 6 3 15 6 20 7 16 3 65 23
65 27 0 2 -6 4 -12 5 -28 2 -47 9 -62 21 -9 7 -16 10 -16 5 -1 -5 -8 3 -16 19
-8 15 -19 27 -24 27 -6 0 -9 3 -8 8 1 4 -3 17 -10 29 -22 40 -20 82 10 201 16
64 31 124 33 132 2 8 8 27 14 43 6 15 8 27 5 27 -4 0 4 9 17 20 l24 21 -30
-14 c-130 -62 -167 -77 -215 -90 -103 -28 -221 -36 -316 -21 -58 9 -175 49
-230 80 -27 15 -58 32 -69 38 -11 6 -22 13 -25 16 -3 3 -21 17 -40 31 -128 96
-214 220 -265 379 -31 97 -34 116 -50 265 -3 33 -8 74 -10 90 -2 17 -7 57 -10
90 -3 33 -8 72 -11 86 -3 16 2 34 13 48 18 22 26 24 138 35 69 8 300 34 360
41 62 7 115 14 175 20 30 3 73 8 95 11 22 2 63 6 90 9 28 3 66 8 85 10 35 5
72 9 165 19 28 4 69 8 93 11 94 11 119 14 177 20 33 3 77 8 98 11 22 3 44 0
52 -6 11 -9 18 -9 29 3 8 8 12 17 9 21 -4 3 -1 6 5 6 6 0 13 8 16 18 4 9 20
33 36 52 38 44 41 48 65 66 11 9 13 13 5 9 -8 -4 -6 0 5 9 11 8 26 20 33 26 6
6 12 8 12 5 0 -3 13 7 29 21 16 14 32 24 34 22 3 -1 13 4 23 13 23 19 102 53
162 68 23 7 42 18 42 25 0 18 -48 107 -71 132 -36 38 -107 66 -183 71 -39 2
-73 2 -76 0z"/>
<path d="M3028 2614 c-2 -1 -23 -5 -47 -8 -157 -21 -290 -92 -400 -212 -28
-31 -51 -59 -51 -64 0 -5 -6 -15 -13 -22 -18 -18 -54 -94 -70 -148 -14 -46 -6
-100 14 -100 5 0 9 -7 9 -15 0 -8 8 -18 18 -23 23 -13 335 -92 359 -92 26 0
47 24 81 91 38 75 92 111 169 114 151 4 247 -101 211 -233 -13 -49 -43 -79
-147 -149 -47 -32 -87 -61 -89 -65 -2 -5 -10 -8 -18 -8 -8 0 -14 -4 -14 -9 0
-5 -13 -14 -30 -21 -16 -7 -30 -16 -30 -21 0 -5 -6 -9 -14 -9 -8 0 -16 -3 -18
-7 -5 -12 -66 -53 -78 -53 -5 0 -10 -4 -10 -9 0 -4 -27 -25 -60 -45 -33 -21
-60 -42 -60 -48 0 -6 -3 -8 -6 -5 -5 5 -83 -42 -104 -63 -3 -3 -54 -38 -115
-79 -60 -41 -111 -78 -113 -83 -2 -4 -8 -8 -12 -8 -5 0 -55 -32 -112 -70 -94
-64 -118 -87 -125 -115 -1 -5 -16 -67 -34 -136 -34 -135 -34 -161 4 -204 24
-29 4 -22 462 -140 138 -35 277 -71 310 -80 33 -9 69 -18 80 -20 11 -3 74 -19
140 -36 66 -17 128 -33 138 -35 9 -2 27 -7 40 -10 12 -3 29 -6 37 -8 21 -4 70
14 70 26 0 5 4 7 10 3 10 -6 36 38 44 76 3 13 15 60 26 104 12 44 23 91 26
104 3 14 7 27 9 30 6 11 -24 71 -35 71 -6 0 -8 5 -5 10 6 10 -41 35 -86 44
-42 9 -62 14 -144 36 -44 12 -89 23 -100 24 -12 1 -25 5 -30 8 -6 3 -60 17
-122 33 -119 29 -127 37 -70 70 18 10 34 21 37 24 3 3 12 11 21 16 61 37 266
180 277 193 6 9 12 13 12 9 0 -4 30 15 68 41 37 26 100 69 140 96 39 27 81 58
91 67 10 10 20 17 22 15 2 -1 23 17 46 41 24 24 40 43 37 43 -2 0 5 10 17 23
28 30 73 120 93 187 54 183 31 355 -71 515 -48 75 -168 199 -184 190 -5 -4 -9
1 -9 10 0 11 -5 15 -15 11 -8 -3 -15 -1 -15 3 0 12 -144 81 -168 81 -10 0 -22
4 -27 9 -17 16 -254 47 -267 35z"/>
<path d="M2977 1950 c-6 -16 -15 -30 -20 -30 -4 0 -6 -4 -3 -8 2 -4 -11 -18
-30 -31 -35 -24 -124 -37 -124 -18 0 6 -3 8 -6 5 -3 -3 -21 -2 -41 4 -19 5
-43 11 -52 13 -9 2 -60 16 -114 30 -54 14 -101 25 -106 25 -4 0 -8 -51 -7
-112 0 -145 -16 -242 -55 -333 -7 -16 -13 -32 -13 -35 -3 -22 -86 -146 -122
-183 -24 -25 -39 -49 -34 -52 6 -3 10 -1 10 5 0 6 5 8 12 4 7 -4 8 -3 4 4 -4
7 -1 12 8 12 9 0 16 5 16 11 0 5 4 8 9 5 5 -3 14 1 21 9 7 8 17 15 22 15 5 0
20 12 33 26 14 15 25 23 25 19 0 -4 15 4 34 19 19 14 40 26 46 26 6 0 9 4 6 8
-2 4 8 13 24 20 15 7 40 24 54 37 15 14 28 23 30 22 3 -1 15 7 28 18 13 11 26
21 31 23 12 3 153 100 171 117 9 9 16 14 16 10 0 -6 71 44 81 58 3 5 9 8 13 7
4 -1 20 9 35 21 30 24 30 21 18 237 -1 30 -7 28 -20 -8z"/>
<path d="M2204 1198 l-19 -23 25 20 c14 11 27 21 29 22 2 2 0 3 -6 3 -5 0 -18
-10 -29 -22z"/>
</g>
</svg>
